<svg
  xmlns="http://www.w3.org/2000/svg"
  viewBox="0 0 100 150"
  width="100"
  height="150"
>
  <!-- Define Gradients for the Chip and Elements -->
  <defs>
    <linearGradient id="chipGradient" x1="0%" y1="0%" x2="100%" y2="100%">
      <stop offset="0%" style="stop-color:#ff7f50;stop-opacity:1" />
      <stop offset="100%" style="stop-color:#1e90ff;stop-opacity:1" />
    </linearGradient>
  </defs>

  <!-- Memory Chip Outline -->
  <rect x="10" y="10" width="80" height="130" rx="10" ry="10" fill="url(#chipGradient)" />

  <!-- Notches on the Chip -->
  <rect x="5" y="15" width="5" height="10" fill="url(#chipGradient)" />
  <rect x="5" y="35" width="5" height="10" fill="url(#chipGradient)" />
  <rect x="5" y="55" width="5" height="10" fill="url(#chipGradient)" />
  <rect x="5" y="75" width="5" height="10" fill="url(#chipGradient)" />
  <rect x="5" y="95" width="5" height="10" fill="url(#chipGradient)" />
  <rect x="5" y="115" width="5" height="10" fill="url(#chipGradient)" />
  <rect x="90" y="15" width="5" height="10" fill="url(#chipGradient)" />
  <rect x="90" y="35" width="5" height="10" fill="url(#chipGradient)" />
  <rect x="90" y="55" width="5" height="10" fill="url(#chipGradient)" />
  <rect x="90" y="75" width="5" height="10" fill="url(#chipGradient)" />
  <rect x="90" y="95" width="5" height="10" fill="url(#chipGradient)" />
  <rect x="90" y="115" width="5" height="10" fill="url(#chipGradient)" />

  <!-- Array Design with Data Elements -->
  <g fill="#ffffff">
    <rect x="25" y="35" width="10" height="10" rx="2" ry="2" />
    <rect x="45" y="35" width="10" height="10" rx="2" ry="2" />
    <rect x="65" y="35" width="10" height="10" rx="2" ry="2" />
    <rect x="25" y="55" width="10" height="10" rx="2" ry="2" />
    <rect x="45" y="55" width="10" height="10" rx="2" ry="2" />
    <rect x="65" y="55" width="10" height="10" rx="2" ry="2" />
    <rect x="25" y="75" width="10" height="10" rx="2" ry="2" />
    <rect x="45" y="75" width="10" height="10" rx="2" ry="2" />
    <rect x="65" y="75" width="10" height="10" rx="2" ry="2" />
    <rect x="25" y="95" width="10" height="10" rx="2" ry="2" />
    <rect x="45" y="95" width="10" height="10" rx="2" ry="2" />
    <rect x="65" y="95" width="10" height="10" rx="2" ry="2" />
  </g>
</svg>
